<svg xmlns="http://www.w3.org/2000/svg" version="1.1" xmlns:xlink="http://www.w3.org/1999/xlink" xmlns:svgjs="http://svgjs.dev/svgjs" width="1440" height="560" preserveAspectRatio="none" viewBox="0 0 1440 560"><g mask="url(&quot;#SvgjsMask1055&quot;)" fill="none"><rect width="1440" height="560" x="0" y="0" fill="#1e3266"></rect><path d="M1488 560L0 560 L0 332.44Q27.74 288.18, 72 315.91Q112.27 236.19, 192 276.46Q233.48 245.94, 264 287.42Q338.23 289.65, 336 363.88Q388.91 296.79, 456 349.7Q479.72 253.42, 576 277.15Q645.13 226.28, 696 295.42Q784.64 264.06, 816 352.7Q835.55 252.25, 936 271.79Q1009.25 225.04, 1056 298.29Q1098.52 268.81, 1128 311.33Q1169.74 233.07, 1248 274.81Q1336.28 243.09, 1368 331.37Q1407.01 250.38, 1488 289.38z" fill="#182f5d"></path><path d="M1560 560L0 560 L0 389.56Q80.6 350.16, 120 430.76Q150.47 389.23, 192 419.69Q227.95 335.64, 312 371.6Q353.16 340.76, 384 381.92Q464.47 342.39, 504 422.87Q524.73 371.6, 576 392.33Q618.44 314.77, 696 357.22Q743.61 332.83, 768 380.43Q827.79 368.22, 840 428.01Q866 382.01, 912 408.02Q938.55 362.57, 984 389.12Q1065.87 350.99, 1104 432.86Q1109.52 366.38, 1176 371.9Q1217.11 341.01, 1248 382.12Q1331.46 345.58, 1368 429.04Q1395.49 384.53, 1440 412.03Q1474.35 326.38, 1560 360.73z" fill="#25467d"></path><path d="M1536 560L0 560 L0 508.57Q30.57 467.14, 72 497.71Q92.81 446.52, 144 467.34Q191.63 394.96, 264 442.59Q351.51 410.1, 384 497.61Q402.64 444.25, 456 462.9Q522.52 409.42, 576 475.95Q621.31 401.25, 696 446.56Q748.65 379.21, 816 431.86Q842.19 386.06, 888 412.25Q946.94 399.19, 960 458.13Q1025.26 403.38, 1080 468.64Q1089.08 405.72, 1152 414.79Q1218.9 361.69, 1272 428.59Q1349.71 434.3, 1344 512.01Q1331.16 427.17, 1416 414.34Q1484.22 362.56, 1536 430.78z" fill="#356cb1"></path><path d="M1464 560L0 560 L0 582.62Q55.69 518.31, 120 574Q146.7 528.7, 192 555.4Q242.62 534.01, 264 584.63Q297.12 497.75, 384 530.87Q413.71 488.58, 456 518.29Q546.25 488.54, 576 578.79Q610.96 493.75, 696 528.71Q748.39 509.11, 768 561.5Q833.83 507.33, 888 573.16Q889.89 503.05, 960 504.94Q1014.8 439.74, 1080 494.54Q1177.55 472.09, 1200 569.64Q1244.96 542.6, 1272 587.56Q1277.16 520.72, 1344 525.89Q1394.8 456.69, 1464 507.5z" fill="white"></path></g><defs><mask id="SvgjsMask1055"><rect width="1440" height="560" fill="#ffffff"></rect></mask></defs></svg>