<svg width="128" height="128" viewBox="0 0 128 128" fill="none" xmlns="http://www.w3.org/2000/svg"><path d="M33.124 83.155v23.152h62.002V40.578L77.689 22.952H33.124v60.204z" stroke="#007FED" stroke-width="4" stroke-miterlimit="10"/><path d="M95.316 40.578H77.689V22.952M46.873 55.896h19.285M46.873 71.394h19.285M46.873 86.902h19.285" stroke="#007FED" stroke-width="4" stroke-miterlimit="10"/><path d="M79.468 49.431l1.888 3.468 3.887.73-2.718 2.867.51 3.927-3.567-1.699-3.577 1.699.51-3.927-2.709-2.868 3.887-.73 1.889-3.467zM79.468 65l1.888 3.477 3.887.719-2.718 2.878.51 3.917-3.567-1.699-3.577 1.699.51-3.917-2.709-2.878 3.887-.72L79.468 65zM79.468 80.577l1.888 3.467 3.887.73-2.718 2.868.51 3.917-3.567-1.69-3.577 1.69.51-3.917-2.709-2.868 3.887-.73 1.889-3.467z" fill="#007FED"/><path d="M33.124 83.155v23.152h62.002V40.578L77.689 22.952H33.124v60.204z" stroke="#007FED" stroke-width="4" stroke-miterlimit="10"/><path d="M95.316 40.578H77.689V22.952" stroke="#007FED" stroke-width="4" stroke-miterlimit="10"/></svg>
