<svg width="128" height="128" viewBox="0 0 128 128" fill="none" xmlns="http://www.w3.org/2000/svg"><path fill-rule="evenodd" clip-rule="evenodd" d="M102.846 47.684a15.32 15.32 0 01-4.01 1.656l-.135 24.691v.011c0 4.338-2.006 8.567-5.289 12.57-3.277 3.996-7.7 7.609-12.21 10.668-4.497 3.051-9.008 5.502-12.401 7.192a108.35 108.35 0 01-4.851 2.27c-.214-.092-.47-.205-.765-.336-.983-.439-2.394-1.09-4.09-1.934-3.395-1.69-7.908-4.141-12.408-7.192-4.513-3.06-8.938-6.673-12.217-10.669-3.283-4.001-5.29-8.228-5.291-12.564v-.005l.192-38.368 35.072-11.272L80.5 29.51c.441-1.283 1.05-2.501 1.81-3.622l-17.265-5.49-.61-.194-.608.195L26.767 32.31l-1.381.444-.007 1.45-.2 39.83v.01c0 5.604 2.589 10.705 6.2 15.105 3.615 4.407 8.383 8.27 13.063 11.443 4.693 3.181 9.372 5.72 12.871 7.462a111.38 111.38 0 004.242 2.005c.514.23.92.405 1.199.524l.322.136.086.035.023.01.007.003h.002c0 .001.001.001.756-1.851l-.755 1.852.755.308.755-.308-.755-1.852c.755 1.852.756 1.852.757 1.851l.002-.001.006-.002.024-.01.085-.035.322-.136c.28-.119.685-.294 1.198-.524a111.36 111.36 0 004.24-2.005c3.497-1.742 8.174-4.281 12.864-7.463 4.678-3.173 9.443-7.035 13.057-11.442 3.608-4.399 6.195-9.498 6.196-15.1v-.006l.145-26.358zm-45.63 4.845a6.763 6.763 0 1113.527 0 6.763 6.763 0 01-13.526 0zm6.764-10.763c-5.944 0-10.763 4.819-10.763 10.763 0 4.962 3.358 9.14 7.926 10.385A17.582 17.582 0 0047.61 73.845a17.579 17.579 0 00-1.208 6.837v2.773h4V80.606a13.577 13.577 0 1127.146 0v2.849h4v-2.773a17.579 17.579 0 00-14.735-17.767c4.57-1.243 7.93-5.422 7.93-10.386 0-5.944-4.819-10.763-10.763-10.763z" fill="#007FED"/><path d="M110.364 34.503a15.308 15.308 0 01-13.37 15.188c-.662.09-1.33.134-1.998.13a15.328 15.328 0 1115.328-15.318h.04z" stroke="#007FED" stroke-width="4" stroke-miterlimit="10"/><path d="M87.082 34.503l5.176 5.176 10.352-10.362" stroke="#007FED" stroke-width="4" stroke-miterlimit="10"/></svg>
